# xmcd
#
# Track frame offsets: 
#        150
#        14687
#        28487
#        43082
#        58137
#        78122
#        98900
#        113647
#        127360
#        141650
#        155347
#        170792
#        182937
#        196575
#        212072
#        223922
#        238425
#        250175
#
# Disc length: 3494 seconds
#
# Revision: 4
# Processed by: cddbd v1.5.1PL0 Copyright (c) Steve Scherf et al.
# Submitted via: ExactAudioCopy v0.95b2
#
DISCID=1e0da412
DTITLE=Louis Armstrong - The Complete RCA Victor Recordings - Disc 1
DYEAR=1997
DGENRE=Jazz
TTITLE0=That's My Home
TTITLE1=Hobo, You Can't Ride This Train
TTITLE2=I Hate To Leave You Now
TTITLE3=You'll Wish You'd Never Been Born
TTITLE4=I'll Be Glad When You're Dead, You Rascal You
TTITLE5=When You're Smiling
TTITLE6=I've Got The World On A String
TTITLE7=I Gotta Right To Sing The Blues
TTITLE8=Hustlin' And Bustlin' For Baby
TTITLE9=Sittin' In The Dark
TTITLE10=High Society
TTITLE11=He's A Son Of The South
TTITLE12=Some Sweet Day
TTITLE13=Basin Street Blues
TTITLE14=Honey, Do!
TTITLE15=Snowball
TTITLE16=Mahogany Hall Stomp
TTITLE17=Swing, You Cats!
EXTD=
EXTT0=
EXTT1=
EXTT2=
EXTT3=
EXTT4=
EXTT5=
EXTT6=
EXTT7=
EXTT8=
EXTT9=
EXTT10=
EXTT11=
EXTT12=
EXTT13=
EXTT14=
EXTT15=
EXTT16=
EXTT17=
PLAYORDER=
